<svg xmlns="http://www.w3.org/2000/svg"  viewBox="0 0 32 32" width="32px" height="32px" baseProfile="basic"><radialGradient id="qdHxsaDuWiBXpLCYJbLy3a" cx="16" cy="16.5" r="12.374" gradientUnits="userSpaceOnUse"><stop offset="0" stop-color="#a4f4ff"/><stop offset=".628" stop-color="#8aedff"/><stop offset="1" stop-color="#78e9ff"/></radialGradient><path fill="url(#qdHxsaDuWiBXpLCYJbLy3a)" d="M26.008,12.084C24.795,8.546,21.448,6,17.5,6c-3.549,0-6.609,2.059-8.074,5.043	C9.284,11.028,9.146,11,9,11c-2.209,0-4,1.791-4,4c0,0.261,0.029,0.515,0.077,0.763C3.242,16.789,2,18.748,2,21c0,3.314,2.686,6,6,6	c2.571,0,11.384,0,14,0c4.418,0,8-3.582,8-8C30,16.044,28.392,13.468,26.008,12.084z"/><radialGradient id="qdHxsaDuWiBXpLCYJbLy3b" cx="22" cy="19" r="8" gradientUnits="userSpaceOnUse"><stop offset="0" stop-color="#d9faff" stop-opacity=".6"/><stop offset=".96" stop-color="#d9faff" stop-opacity=".024"/><stop offset="1" stop-color="#d9faff" stop-opacity="0"/></radialGradient><circle cx="22" cy="19" r="8" fill="url(#qdHxsaDuWiBXpLCYJbLy3b)"/><radialGradient id="qdHxsaDuWiBXpLCYJbLy3c" cx="17.5" cy="15" r="9" gradientUnits="userSpaceOnUse"><stop offset="0" stop-color="#d9faff" stop-opacity=".8"/><stop offset="1" stop-color="#d9faff" stop-opacity="0"/></radialGradient><circle cx="17.5" cy="15" r="9" fill="url(#qdHxsaDuWiBXpLCYJbLy3c)"/><radialGradient id="qdHxsaDuWiBXpLCYJbLy3d" cx="8" cy="21" r="6" gradientUnits="userSpaceOnUse"><stop offset="0" stop-color="#d9faff" stop-opacity=".6"/><stop offset="1" stop-color="#d9faff" stop-opacity="0"/></radialGradient><circle cx="8" cy="21" r="6" fill="url(#qdHxsaDuWiBXpLCYJbLy3d)"/><radialGradient id="qdHxsaDuWiBXpLCYJbLy3e" cx="9" cy="15" r="4" gradientUnits="userSpaceOnUse"><stop offset="0" stop-color="#d9faff" stop-opacity=".6"/><stop offset="1" stop-color="#d9faff" stop-opacity="0"/></radialGradient><circle cx="9" cy="15" r="4" fill="url(#qdHxsaDuWiBXpLCYJbLy3e)"/><linearGradient id="qdHxsaDuWiBXpLCYJbLy3f" x1="16" x2="16" y1="6" y2="27" gradientUnits="userSpaceOnUse"><stop offset="0" stop-opacity=".02"/><stop offset="1" stop-opacity=".15"/></linearGradient><path fill="url(#qdHxsaDuWiBXpLCYJbLy3f)" d="M26.008,12.084	C24.795,8.546,21.448,6,17.5,6c-3.549,0-6.609,2.059-8.074,5.043C9.284,11.028,9.146,11,9,11c-2.209,0-4,1.791-4,4	c0,0.261,0.029,0.515,0.077,0.763C3.242,16.789,2,18.748,2,21c0,3.314,2.686,6,6,6c2.571,0,11.384,0,14,0c4.418,0,8-3.582,8-8	C30,16.044,28.392,13.468,26.008,12.084z M22,26.75H8c-3.171,0-5.75-2.579-5.75-5.75c0-2.079,1.13-4.002,2.949-5.019l0.158-0.088	l-0.034-0.177C5.274,15.463,5.25,15.229,5.25,15c0-2.068,1.682-3.75,3.75-3.75c0.089,0,0.175,0.012,0.26,0.024l0.139,0.018	l0.174,0.019l0.077-0.157c1.485-3.024,4.493-4.903,7.85-4.903c3.734,0,7.058,2.377,8.271,5.915l0.03,0.088l0.081,0.047	c2.386,1.386,3.868,3.953,3.868,6.7C29.75,23.273,26.273,26.75,22,26.75z"/></svg>